<svg width="125" height="38" viewBox="0 0 125 38" fill="none" xmlns="http://www.w3.org/2000/svg">
<path d="M3.33036 15.2204C2.75309 14.9313 2.05887 14.8836 1.41611 15.1512C0.243804 15.6396 -0.311009 16.9849 0.177376 18.1573C0.665761 19.3296 2.01116 19.8844 3.18347 19.396C3.82623 19.1284 4.28187 18.6026 4.48302 17.9889L38.2798 3.92112L40.5075 9.2737L26.2657 15.2017L27.4184 17.9701L34.078 33.9699C33.7889 34.5472 33.7412 35.2414 34.0088 35.8841C34.4972 37.0564 35.8426 37.6113 37.0149 37.1229C38.1872 36.6345 38.742 35.2891 38.2536 34.1168C37.986 33.474 37.4602 33.0184 36.8465 32.8172L30.1869 16.8175L41.6602 12.0412L44.4286 10.8886L43.276 8.1201L41.0483 2.76752L39.8956 0L3.33036 15.2204Z" fill="url(#paint0_linear_365_216)"/>
<path d="M26.2386 30.7402L21.8815 20.2736L20.7288 17.5051L17.9604 18.6578L11.1623 21.488C10.585 21.1989 9.89078 21.1512 9.24802 21.4188C8.07571 21.9071 7.5209 23.2525 8.00928 24.4249C8.49767 25.5972 9.84307 26.152 11.0154 25.6636C11.6581 25.396 12.1138 24.8702 12.3149 24.2564L19.113 21.4262L23.4701 31.8928C23.181 32.4701 23.1333 33.1643 23.4009 33.8071C23.8893 34.9794 25.2347 35.5342 26.407 35.0458C27.5793 34.5574 28.1341 33.212 27.6457 32.0397C27.3782 31.397 26.8523 30.9423 26.2386 30.7402Z" fill="url(#paint1_linear_365_216)"/>
<path d="M57.6683 19.0751H51.1986V36.6653H46.7555V19.0751H40.2858V16.0381H57.6683V19.0751Z" fill="#142342"/>
<path d="M64.0379 29.7251H58.6497V33.548C58.6497 34.1028 58.8799 34.3806 59.3402 34.3806C59.7921 34.3806 60.0176 34.1037 60.0176 33.548V30.2471H64.0379V33.576C64.0379 35.7859 62.4623 36.8909 59.3131 36.8909C56.191 36.8909 54.6295 35.7391 54.6295 33.4347V23.6306C54.6295 21.3262 56.191 20.1744 59.3131 20.1744C62.4633 20.1744 64.0379 21.2794 64.0379 23.4893V29.7251ZM60.0185 27.2701V23.5173C60.0185 22.9812 59.7931 22.7137 59.3412 22.7137C58.8808 22.7137 58.6507 22.9812 58.6507 23.5173V27.2701H60.0185Z" fill="#142342"/>
<path d="M74.4802 27.5386H70.4599V23.5183C70.4599 22.9822 70.2344 22.7146 69.7825 22.7146C69.3222 22.7146 69.0911 22.9822 69.0911 23.5183V33.548C69.0911 34.1028 69.3213 34.3806 69.7825 34.3806C70.2344 34.3806 70.4599 34.1037 70.4599 33.548V29.5838H74.4802V33.576C74.4802 35.7859 72.9327 36.8909 69.8396 36.8909C66.6604 36.8909 65.0718 35.7391 65.0718 33.4347V23.6306C65.0718 21.3262 66.6614 20.1744 69.8396 20.1744C72.9327 20.1744 74.4802 21.2794 74.4802 23.4893V27.5386Z" fill="#142342"/>
<path d="M84.9365 36.6653H80.9162V23.4612C80.9162 22.9625 80.6908 22.7136 80.2389 22.7136C79.7776 22.7136 79.5474 22.9531 79.5474 23.4331V36.6644H75.5272V16.4366H79.5474V20.7816C80.0255 20.3774 80.8554 20.1753 82.038 20.1753C82.8258 20.1753 83.506 20.3821 84.0776 20.7966C84.6502 21.2101 84.9365 21.7602 84.9365 22.447V36.6653Z" fill="#142342"/>
<path d="M95.4068 36.6654H92.3633L92.0237 36.1153C91.3351 36.6327 90.552 36.8909 89.6753 36.8909C88.6471 36.8909 87.7723 36.6514 87.0519 36.1714C86.3305 35.6914 85.9703 35.0384 85.9703 34.2104V22.4461C85.9703 21.75 86.2557 21.198 86.8264 20.7882C87.3971 20.3794 88.0867 20.1745 88.8988 20.1745C90.0112 20.1745 90.8411 20.3766 91.3875 20.7807V16.4358H95.4078V36.6654H95.4068ZM91.3865 33.6041V23.4332C91.3865 22.9541 91.1564 22.7137 90.6951 22.7137C90.2245 22.7137 89.9897 22.9626 89.9897 23.4612V33.6032C89.9897 34.1019 90.2245 34.3507 90.6951 34.3507C91.1564 34.3517 91.3865 34.1028 91.3865 33.6041Z" fill="#142342"/>
<path d="M96.3406 33.4347V23.6306C96.3406 21.3262 97.9348 20.1744 101.122 20.1744C102.355 20.1744 103.438 20.442 104.374 20.9781C105.309 21.5142 105.777 22.3516 105.777 23.4893V33.5751C105.777 35.785 104.226 36.8899 101.122 36.8899C97.9348 36.8909 96.3406 35.7391 96.3406 33.4347ZM101.758 33.547V23.5173C101.758 22.9812 101.528 22.7137 101.066 22.7137C100.596 22.7137 100.361 22.9812 100.361 23.5173V33.547C100.361 34.1018 100.596 34.3797 101.066 34.3797C101.528 34.3797 101.758 34.1028 101.758 33.547Z" fill="#142342"/>
<path d="M114.696 36.6654H112.157C110.342 36.6654 109.256 36.3931 108.898 35.8477C108.541 35.3022 108.362 34.2534 108.362 32.7022V22.7136H106.57V20.2876H108.362V16.9868H112.382V20.2876H114.555V22.7136H112.382V32.6722C112.382 33.1512 112.526 33.474 112.813 33.6387C113.1 33.8034 113.727 33.8857 114.696 33.8857V36.6654Z" fill="#142342"/>
<path d="M115.575 30.0778H119.595V33.548C119.595 34.1028 119.82 34.3807 120.272 34.3807C120.724 34.3807 120.95 33.8493 120.95 32.7864C120.95 31.4045 120.673 30.511 120.118 30.1059C118.02 29.0056 116.755 28.2366 116.323 27.7996C115.891 27.3627 115.675 26.7069 115.675 25.8321V23.6315C115.675 21.3271 117.235 20.1754 120.358 20.1754C123.395 20.1754 124.915 21.2804 124.915 23.4903V26.7209H120.993L121.078 24.7599C121.078 23.3967 120.828 22.7146 120.33 22.7146C119.832 22.7146 119.583 23.1432 119.583 23.9983C119.583 24.8824 119.693 25.5495 119.914 26.0014C120.135 26.4524 121.364 27.2289 123.603 28.3292C124.534 28.9972 125 29.8804 125 30.9807V33.4348C125 35.7392 123.413 36.8909 120.24 36.8909C117.132 36.8909 115.578 35.786 115.578 33.5761V30.0778H115.575Z" fill="#142342"/>
<defs>
<linearGradient id="paint0_linear_365_216" x1="15.855" y1="30.5333" x2="39.4551" y2="-0.334846" gradientUnits="userSpaceOnUse">
<stop stop-color="#31D5FE"/>
<stop offset="1" stop-color="#1855FF"/>
</linearGradient>
<linearGradient id="paint1_linear_365_216" x1="15.8557" y1="30.8127" x2="24.0735" y2="20.0641" gradientUnits="userSpaceOnUse">
<stop stop-color="#31D5FE"/>
<stop offset="1" stop-color="#1855FF"/>
</linearGradient>
</defs>
</svg>
